<?xml version="1.0" encoding="UTF-8"?>
<svg id="Layer_3" data-name="Layer 3" xmlns="http://www.w3.org/2000/svg" viewBox="0 0 1000 1000">
  <defs>
    <style>
      .cls-1 {
        font-family: AllRoundGothic-Demi, 'All Round Gothic';
        font-size: 81.68px;
        font-weight: 300;
      }

      .cls-1, .cls-2 {
        fill: #4577f4;
      }

      .cls-3 {
        fill: #f2721c;
      }

      .cls-4 {
        fill: #37dd8e;
      }

      .cls-5 {
        letter-spacing: -.09em;
      }

      .cls-6 {
        letter-spacing: -.01em;
      }

      .cls-7 {
        fill: #f13818;
      }
    </style>
  </defs>
  <path class="cls-2" d="M252.49,404.64h11.86c3.38,0,6.11,2.74,6.11,6.11v108.69c0,3.38-2.74,6.11-6.11,6.11h-11.86c-3.38,0-6.11,2.74-6.11,6.11v11.86c0,3.38-2.74,6.11-6.11,6.11h-84.48c-3.38,0-6.11-2.74-6.11-6.11v-11.86c0-3.38-2.74-6.11-6.11-6.11h-11.98c-3.38,0-6.11-2.74-6.11-6.11v-108.69c0-3.38,2.74-6.11,6.11-6.11h11.98c3.38,0,6.11-2.74,6.11-6.11v-11.98c0-3.38,2.74-6.11,6.11-6.11h84.48c3.38,0,6.11,2.74,6.11,6.11v11.98c0,3.38,2.74,6.11,6.11,6.11ZM222.17,519.44v-108.69c0-3.38-2.74-6.11-6.11-6.11h-36.19c-3.38,0-6.11,2.74-6.11,6.11v12.47c0,3.38,2.74,6.11,6.11,6.11h25.78c3.38,0,6.11,2.74,6.11,6.11v59.3c0,3.38-2.74,6.11-6.11,6.11h-25.78c-3.38,0-6.11,2.74-6.11,6.11v12.47c0,3.38,2.74,6.11,6.11,6.11h36.19c3.38,0,6.11-2.74,6.11-6.11ZM173.76,459.53v11.5c0,3.38,2.74,6.11,6.11,6.11h0c3.38,0,6.11-2.74,6.11-6.11v-11.5c0-3.38-2.74-6.11-6.11-6.11h0c-3.38,0-6.11,2.74-6.11,6.11Z"/>
  <path class="cls-2" d="M246.14,291.78h0c0,6.65,5.39,12.04,12.04,12.04h0c6.65,0,12.04,5.39,12.04,12.04v38.25c0,6.65-5.39,12.04-12.04,12.04h-96.7c-6.65,0-12.04-5.39-12.04-12.04h0c0-6.65-5.39-12.04-12.04-12.04h-.12c-6.65,0-12.04-5.39-12.04-12.04v-14.16c0-6.65,5.39-12.04,12.04-12.04h.12c6.65,0,12.04-5.39,12.04-12.04h0c0-6.65,5.39-12.04,12.04-12.04h72.62c6.65,0,12.04,5.39,12.04,12.04ZM221.93,330.03v-14.16c0-6.65-5.39-12.04-12.04-12.04h-24.33c-6.65,0-12.04,5.39-12.04,12.04v14.16c0,6.65,5.39,12.04,12.04,12.04h24.33c6.65,0,12.04-5.39,12.04-12.04Z"/>
  <path class="cls-3" d="M415.58,392.48v.12c0,6.65,5.39,12.04,12.04,12.04h0c6.65,0,12.04,5.39,12.04,12.04v96.83c0,6.65-5.39,12.04-12.04,12.04h0c-6.65,0-12.04,5.39-12.04,12.04h0c0,6.65-5.39,12.04-12.04,12.04h-72.62c-6.65,0-12.04-5.39-12.04-12.04h0c0-6.65-5.39-12.04-12.04-12.04h-.12c-6.65,0-12.04-5.39-12.04-12.04v-96.83c0-6.65,5.39-12.04,12.04-12.04h.12c6.65,0,12.04-5.39,12.04-12.04v-.12c0-6.65,5.39-12.04,12.04-12.04h72.62c6.65,0,12.04,5.39,12.04,12.04ZM391.37,513.51v-96.83c0-6.65-5.39-12.04-12.04-12.04h-24.33c-6.65,0-12.04,5.39-12.04,12.04v96.83c0,6.65,5.39,12.04,12.04,12.04h24.33c6.65,0,12.04-5.39,12.04-12.04ZM524.21,404.64h.12c6.65,0,12.04,5.39,12.04,12.04v120.91c0,6.65-5.39,12.04-12.04,12.04h-24.21c-6.65,0-12.04-5.39-12.04-12.04v-120.91c0-6.65-5.39-12.04-12.04-12.04h-24.33c-6.65,0-12.04-5.39-12.04-12.04v-.12c0-6.65,5.39-12.04,12.04-12.04h48.41c6.65,0,12.04,5.39,12.04,12.04v.12c0,6.65,5.39,12.04,12.04,12.04Z"/>
  <path class="cls-4" d="M449.23,342.07h77.58c5.28,0,9.56,4.28,9.56,9.56v4.96c0,5.28-4.28,9.56-9.56,9.56h-101.67c-5.28,0-9.56-4.28-9.56-9.56v-4.96c0-5.28-4.28-9.56-9.56-9.56h-5.08c-5.28,0-9.56-4.28-9.56-9.56v-19.12c0-5.28,4.28-9.56,9.56-9.56h5.08c5.28,0,9.56-4.28,9.56-9.56v-4.96c0-5.28,4.28-9.56,9.56-9.56h101.67c5.28,0,9.56,4.28,9.56,9.56v24.09c0,5.28-4.28,9.56-9.56,9.56h-29.17c-5.28,0-9.56-4.28-9.56-9.56h0c0-5.28-4.28-9.56-9.56-9.56h-29.29c-5.28,0-9.56,4.28-9.56,9.56v19.12c0,5.28,4.28,9.56,9.56,9.56Z"/>
  <path class="cls-7" d="M790.17,404.64h0c6.68,0,12.1,5.42,12.1,12.1v120.79c0,6.68-5.42,12.1-12.1,12.1h-24.09c-6.68,0-12.1-5.42-12.1-12.1v-120.79c0-6.68-5.42-12.1-12.1-12.1h-24.21c-6.68,0-12.1,5.42-12.1,12.1v120.79c0,6.68-5.42,12.1-12.1,12.1h-24.09c-6.68,0-12.1-5.42-12.1-12.1v-120.79c0-6.68-5.42-12.1-12.1-12.1h-24.21c-6.68,0-12.1,5.42-12.1,12.1v120.79c0,6.68-5.42,12.1-12.1,12.1h-24.09c-6.68,0-12.1-5.42-12.1-12.1v-120.79c0-6.68,5.42-12.1,12.1-12.1h0c6.68,0,12.1-5.42,12.1-12.1h0c0-6.68,5.42-12.1,12.1-12.1h169.08c6.68,0,12.1,5.42,12.1,12.1h0c0,6.68,5.42,12.1,12.1,12.1Z"/>
  <path class="cls-7" d="M720.82,569.25v57.25c0,4.28-3.47,7.75-7.75,7.75h-32.8c-4.28,0-7.75-3.47-7.75-7.75v-57.25c0-4.28,3.47-7.75,7.75-7.75h32.8c4.28,0,7.75,3.47,7.75,7.75ZM784.12,569.25v33.16c0,4.28,3.47,7.75,7.75,7.75h0c4.28,0,7.75,3.47,7.75,7.75v8.59c0,4.28-3.47,7.75-7.75,7.75h-48.29c-4.28,0-7.75-3.47-7.75-7.75v-57.25c0-4.28,3.47-7.75,7.75-7.75h32.8c4.28,0,7.75,3.47,7.75,7.75Z"/>
  <path class="cls-7" d="M840.48,404.64h20.29c7.73,0,14,6.27,14,14v12.91c0,7.73-6.27,14-14,14h-20.29c-7.73,0-14-6.27-14-14v-12.91c0-7.73,6.27-14,14-14ZM840.48,484.52h20.29c7.73,0,14,6.27,14,14v12.91c0,7.73-6.27,14-14,14h-20.29c-7.73,0-14-6.27-14-14v-12.91c0-7.73,6.27-14,14-14Z"/>
  <text class="cls-1" transform="translate(125.47 720.26)"><tspan class="cls-6" x="0" y="0">f</tspan><tspan x="39.45" y="0">ollow </tspan><tspan class="cls-5" x="268.31" y="0">Y</tspan><tspan x="314.38" y="0">our dream</tspan></text>
</svg>