<?xml version="1.0" encoding="UTF-8"?>
<svg id="Layer_1" data-name="Layer 1" xmlns="http://www.w3.org/2000/svg" viewBox="0 0 1000 1000">
  <defs>
    <style>
      .cls-1 {
        font-family: AllRoundGothic-Demi, 'All Round Gothic';
        font-size: 81.68px;
        font-weight: 300;
      }

      .cls-1, .cls-2 {
        fill: #4577f4;
      }

      .cls-3 {
        fill: #0f0e0e;
      }

      .cls-4 {
        fill: #fff;
      }

      .cls-5 {
        fill: #f2721c;
      }

      .cls-6 {
        fill: #37dd8e;
      }

      .cls-7 {
        letter-spacing: -.09em;
      }

      .cls-8 {
        letter-spacing: -.01em;
      }

      .cls-9 {
        fill: #f13818;
      }
    </style>
  </defs>
  <path class="cls-9" d="M872.65,543.26v10.91c0,8.27-6.7,14.97-14.97,14.97h-11.31c-8.27,0-14.97-6.7-14.97-14.97v-6.82c0-8.27-6.7-14.97-14.97-14.97h-3.54c-8.27,0-14.97,6.7-14.97,14.97v6.82c0,8.27-6.7,14.97-14.97,14.97h-85.26c-8.27,0-14.97-6.7-14.97-14.97v-6.82c0-8.27-6.7-14.97-14.97-14.97h-7.24c-8.27,0-14.97-6.7-14.97-14.97v-84.87c0-8.27,6.7-14.97,14.97-14.97h7.24c8.27,0,14.97-6.7,14.97-14.97v-7.22c0-8.27,6.7-14.97,14.97-14.97h37.33l22.36-28.25-2.8-4.58c-1.28-2.13-1.35-4.81-.15-6.99l3.69-6.84c1.2-2.21,3.49-3.56,5.97-3.64l7.77-.2c2.53-.07,4.86,1.21,6.17,3.34l4.04,6.64c1.31,2.13,1.35,4.81.18,6.99l-3.73,6.84c-1.2,2.21-3.49,3.61-5.97,3.64l-7.77.2c-.65.03-1.31-.03-1.93-.23l-11.2,23.08h31.28c8.27,0,14.97,6.7,14.97,14.97v7.22c0,8.27,6.7,14.97,14.97,14.97h7.64c8.27,0,14.97,6.7,14.97,14.97v80.77c0,8.27,6.7,14.97,14.97,14.97h7.22c8.27,0,14.97,6.7,14.97,14.97Z"/>
  <path class="cls-2" d="M127.35,333.91v-14.64c0-7.35,5.96-13.31,13.31-13.31h14.64c7.35,0,13.31,5.96,13.31,13.31v14.64c0,7.35-5.96,13.31-13.31,13.31h-14.64c-7.35,0-13.31-5.96-13.31-13.31ZM127.35,555.34v-162.12c0-7.35,5.96-13.31,13.31-13.31h14.64c7.35,0,13.31,5.96,13.31,13.31v162.12c0,7.35-5.96,13.31-13.31,13.31h-14.64c-7.35,0-13.31-5.96-13.31-13.31Z"/>
  <path class="cls-5" d="M238.47,554.08v-6.82c0-8.27-6.7-14.97-14.97-14.97h-7.23c-8.27,0-14.97-6.7-14.97-14.97v-84.85c0-8.27,6.7-14.97,14.97-14.97h7.23c8.27,0,14.97-6.7,14.97-14.97v-7.23c0-8.27,6.7-14.97,14.97-14.97h81.58c8.27,0,14.97-6.7,14.97-14.97v-44c0-8.27,6.7-14.97,14.97-14.97h11.32c8.27,0,14.97,6.7,14.97,14.97v195.97c0,8.27-6.7,14.97-14.97,14.97h-7.64c-8.27,0-14.97,6.7-14.97,14.97v6.82c0,8.27-6.7,14.97-14.97,14.97h-85.26c-8.27,0-14.97-6.7-14.97-14.97ZM257.53,528.2h77.09c8.27,0,14.97-6.7,14.97-14.97v-77.09c0-8.27-6.7-14.97-14.97-14.97h-77.09c-8.27,0-14.97,6.7-14.97,14.97v77.09c0,8.27,6.7,14.97,14.97,14.97Z"/>
  <path class="cls-6" d="M461.12,553.67v-6.82c0-8.27-6.7-14.97-14.97-14.97h-7.23c-8.27,0-14.97-6.7-14.97-14.97v-84.85c0-8.27,6.7-14.97,14.97-14.97h7.23c8.27,0,14.97-6.7,14.97-14.97v-7.23c0-8.27,6.7-14.97,14.97-14.97h85.26c8.27,0,14.97,6.7,14.97,14.97v7.23c0,8.27,6.7,14.97,14.97,14.97h7.64c8.27,0,14.97,6.7,14.97,14.97v10.5c0,8.27-6.7,14.97-14.97,14.97h-11.72c-8.27,0-14.97-6.7-14.97-14.97v-6.82c0-8.27-6.7-14.97-14.97-14.97h-77.09c-8.27,0-14.97,6.7-14.97,14.97v2.74c0,8.27,6.7,14.97,14.97,14.97h44.41c8.27,0,14.97,6.7,14.97,14.97v11.31c0,8.27-6.7,14.97-14.97,14.97h-44.41c-8.27,0-14.97,6.7-14.97,14.97v3.14c0,8.27,6.7,14.97,14.97,14.97h77.09c8.27,0,14.97-6.7,14.97-14.97v-7.64c0-8.27,6.7-14.97,14.97-14.97h11.72c8.27,0,14.97,6.7,14.97,14.97v11.32c0,8.27-6.7,14.97-14.97,14.97h-7.64c-8.27,0-14.97,6.7-14.97,14.97v7.23c0,8.27-6.7,14.97-14.97,14.97h-85.26c-8.27,0-14.97-6.7-14.97-14.97Z"/>
  <g>
    <path class="cls-3" d="M802.57,501.94c-20.58,6.76-42.75,8.24-60.39,7.93-17.63.3-39.8-1.18-60.39-7.93-4.43-1.46-6.99-5.82-5.9-10.1,4.23-16.61,15.86-55.79,31.75-55.79h.99s34.87,17.11,67.1,0h1c15.88,0,27.52,39.17,31.74,55.79,1.09,4.29-1.46,8.64-5.9,10.1Z"/>
    <path class="cls-4" d="M705.18,477.37c-2.81,1.32-5.61-1.77-4.05-4.45,2.94-5.07,7.92-10.31,15.9-10.31,10.29,0,13.27,9.26,14.11,15.43.2,1.43-1.52,2.29-2.56,1.29-2.24-2.16-6.06-4.41-12.3-4.58-4-.11-7.89,1.13-11.1,2.63Z"/>
    <path class="cls-4" d="M777.59,479.17c2.81,1.32,5.61-1.77,4.05-4.45-2.94-5.07-7.92-10.31-15.9-10.31-10.29,0-13.27,9.26-14.11,15.43-.2,1.43,1.52,2.29,2.56,1.29,2.24-2.16,6.06-4.41,12.3-4.58,4-.11,7.89,1.13,11.1,2.63Z"/>
  </g>
  <text class="cls-1" transform="translate(127.35 675.09)"><tspan class="cls-8" x="0" y="0">f</tspan><tspan x="39.45" y="0">ollow </tspan><tspan class="cls-7" x="268.31" y="0">Y</tspan><tspan x="314.38" y="0">our dream</tspan></text>
</svg>